<?xml version="1.0" encoding="utf-8"?><!-- Uploaded to: SVG Repo, www.svgrepo.com, Generator: SVG Repo Mixer Tools -->
<svg fill="#000000" width="800px" height="800px" viewBox="0 0 24 24" id="football-flag-corner-3" data-name="Flat Color" xmlns="http://www.w3.org/2000/svg" class="icon flat-color"><path id="secondary" d="M10,3H5A1,1,0,0,0,3,3v9a1,1,0,0,0,2,0V9h5a1,1,0,0,0,1-1V4A1,1,0,0,0,10,3Z" style="fill: rgb(44, 169, 188);"></path><path id="primary" d="M20,11H4a1,1,0,0,0-1,1v9a1,1,0,0,0,2,0V16.9A5,5,0,0,0,8.9,13H20a1,1,0,0,0,0-2ZM5,14.83V13H6.83A3,3,0,0,1,5,14.83Z" style="fill: rgb(0, 0, 0);"></path></svg>